<?xml version="1.0" encoding="utf-8"?>
<!-- Generator: Adobe Illustrator 17.1.0, SVG Export Plug-In . SVG Version: 6.00 Build 0)  -->
<!DOCTYPE svg PUBLIC "-//W3C//DTD SVG 1.1//EN" "http://www.w3.org/Graphics/SVG/1.1/DTD/svg11.dtd">
<svg version="1.1" id="Layer_5" xmlns="http://www.w3.org/2000/svg" xmlns:xlink="http://www.w3.org/1999/xlink" x="0px" y="0px"
	 viewBox="0 0 841.9 595.3" enable-background="new 0 0 841.9 595.3" xml:space="preserve">
<g>
	<g>
		<g>
			<path fill="#969FAA" d="M203.3,476.4v81.4H59.5v-80.9l0.2-0.3c19,17,44.2,27.2,71.7,27.2C159.1,503.8,184.3,493.5,203.3,476.4z"
				/>
		</g>
		<g>
			<path fill="#DFB28B" d="M491.1,234.2l4.5,35.8l-0.5,0.2h-61.8l-0.5-0.2l4.5-35.8H491.1z"/>
		</g>
		<g>
			<path fill="#D3A06C" d="M495.4,270L509,378h-90l13.5-108l0.5,0.2h61.8L495.4,270z"/>
		</g>
		<g>
			<path fill="#CCD1D9" d="M131.4,72.4v36h-18.1h-36v-36H131.4z"/>
		</g>
		<g>
			<path fill="#CCD1D9" d="M212.3,18.4l9,90h-54l9-90H212.3z"/>
		</g>
		<g>
			<path fill="#DFB28B" d="M113.5,289.6v-37.5v-36v-36v-36v-36h18.1h36h54h17.7v90h-54v36h-36v55.4c-5.9-0.9-11.8-1.6-18.1-1.6
				C125.3,288.1,119.3,288.7,113.5,289.6z"/>
		</g>
		<g>
			<path fill="#CF9E76" d="M113.5,108.3v181.3c-20.5,3.4-39.1,12.5-53.7,25.7l-0.2-0.3V108.3H113.5z"/>
		</g>
		<g>
			<path fill="#FCD770" d="M293.2,198.3v36H185.4v-36h53.8H293.2z"/>
		</g>
		<g>
			<path fill="#FFEAA7" d="M329.2,234.2V378h-91.4c-2.2-12.9-6.5-25.1-12.9-36.1c-15.7-27.2-43.1-46.8-75.5-52.3v-55.4h36h107.9
				L329.2,234.2z"/>
		</g>
		<g>
			<path fill="#CCD1D9" d="M813,378v36H237.8c1.7-5.9,2.9-11.8,2.9-18.1s-0.9-12.1-2.9-18.1H409h168.5H746h67V378z"/>
		</g>
		<g>
			<path fill="#E6E9ED" d="M264.8,414c-3.9,12.9-11.7,25.1-23,36.1c-10.3,10-23.3,18.8-38.3,26.5v81.4H813V414.1H264.8V414z"/>
		</g>
		<g>
			<circle fill="#69D6F4" cx="131.4" cy="395.9" r="107.9"/>
		</g>
		<g>
			<path fill="#AAB2BD" d="M455.1,467.8h54v90h-54V467.8z"/>
		</g>
		<g>
			<path fill="#AAB2BD" d="M347.1,467.8h54v90h-54V467.8z"/>
		</g>
		<g>
			<path fill="#AAB2BD" d="M239.2,467.8h54v90h-54V467.8z"/>
		</g>
		<g>
			<path fill="#CCD1D9" d="M401.1,144.3c-10,0-18.8-4-25.4-10.6c-6.5-6.5-10.6-15.6-10.6-25.4c0-19.9,16-36,36-36H428h18.1h22.4
				c17.3,0,31.4,14.2,31.4,31.4v4.5h26.9c10,0,18.8,4,25.4,10.6c6.5,6.5,10.6,15.6,10.6,25.4c0,19.9-16,36-36,36h-26.9
				c-10,0-18.1,8.1-18.1,18.1v9h-36v-9c0-10-8.1-18.1-18.1-18.1H365c-5,0-9.5-2-12.6-5.3c-3.3-3.3-5.3-7.8-5.3-12.6
				c0-10,8.1-18.1,18.1-18.1L401.1,144.3L401.1,144.3z"/>
		</g>
	</g>
	<g>
		<path d="M499,225.2h-69.9L411.1,369h-73V225.2h-36v-36h-54v-90h-18.8l-9-90H168l-9,90h-18.8v-36H68.2v36H50.5v212.4
			c-22.1,21.3-36,51-36,84.2s13.9,62.9,36,84.2v86.7h773.3V369h-307L499,225.2z M483.1,243.1l2.2,18.1h-42.5l2.2-18.1H483.1z
			 M440.5,279h47l11.2,90h-69.6L440.5,279z M320.2,369H245c-10.1-42.8-43.9-76.4-86.7-86.7v-39.2h161.9V369z M164.9,489
			c5-8.2,9.2-18.4,12.5-30h30.3C196.4,472.5,181.7,482.8,164.9,489z M55.3,459h30.3c3.3,11.7,7.5,21.8,12.5,30
			C81.3,482.8,66.5,472.5,55.3,459z M98.1,303c-5,8.2-9.2,18.4-12.5,30H55.3C66.5,319.5,81.3,309.1,98.1,303z M104.5,171.2h-36
			v-18.1h36V171.2z M104.5,189.2v18.1h-36v-18.1H104.5z M104.5,225.2v18.1h-36v-18.1H104.5z M185.2,386.9c-0.5-12.8-1.7-24.9-3.7-36
			h38c5.6,11,9.3,23,10.4,36H185.2z M95.6,386.9c0.5-13.1,2-25.1,4.2-36H163c2.2,10.9,3.7,22.9,4.2,36H95.6z M167.2,404.9
			c-0.5,13.1-2,25.1-4.2,36H99.8c-2.2-10.9-3.7-22.9-4.2-36H167.2z M177.3,333c-3.3-11.7-7.5-21.8-12.5-30
			c16.8,6.1,31.6,16.5,42.8,30H177.3z M158.5,333h-54.2c7.2-22.3,17.4-36,27.1-36S151.5,310.8,158.5,333z M81.4,350.9
			c-2,11-3.3,23.2-3.7,36H33c1.2-12.9,4.8-25.1,10.4-36H81.4z M77.7,404.9c0.5,12.8,1.7,24.9,3.7,36h-38c-5.6-11-9.3-23-10.4-36
			H77.7z M104.5,459h54.2c-7.2,22.3-17.4,36-27.1,36C121.7,494.9,111.5,481.1,104.5,459z M219.5,440.9h-38c2-11,3.3-23.2,3.7-36
			h44.7C228.7,417.9,225.1,430,219.5,440.9L219.5,440.9z M284.2,225.2h-90v-18.1h90V225.2z M230.4,189.2h-54v36h-36v54.3
			c-3-0.3-5.9-0.5-9-0.5s-6.1,0.2-9,0.5V117.3h107.9v71.9H230.4z M184.5,27.4h19.6l7.2,71.9h-34.1L184.5,27.4z M86.6,81.4h36v18.1
			h-36V81.4z M104.5,117.3v18.1h-36v-18.1H104.5z M68.5,261.1h36v21.2c-12.9,3.1-25.1,8.2-36,15.3V261.1z M68.5,494.3
			c18.2,11.7,39.7,18.5,62.9,18.5c23.2,0,44.7-6.8,62.9-18.5v54.5H68.4L68.5,494.3z M284.2,548.7h-36v-71.9h36V548.7z M392.1,548.7
			h-36v-71.9h36V548.7z M499.9,548.7h-36v-71.9h36V548.7z M518,548.7v-90h-71.9v90h-36v-90h-71.9v90h-36v-90h-71.9v90h-18.1v-68.6
			c15.9-15.3,27.4-35,32.7-57.1h560.9v125.9H518V548.7z M805.9,404.9H247.8c0.3-3,0.5-5.9,0.5-9s-0.2-6.1-0.5-9h558.1V404.9z"/>
		<path d="M527,99.3h-18.2c-2.2-20.2-19.5-36-40.2-36h-22.4v18.1h22.4c12.5,0,22.4,10.1,22.4,22.4v13.5h36
			c14.9,0,26.9,12.1,26.9,26.9s-12.1,26.9-26.9,26.9h-26.9c-14.9,0-26.9,12.1-26.9,26.9v9h18.1v-9c0-5,4-9,9-9h26.9
			c24.7,0,45-20.2,45-45S551.7,99.3,527,99.3z"/>
		<path d="M365.1,189.2H428c5,0,9,4,9,9v9h18.1v-9c0-14.9-12.1-26.9-26.9-26.9h-62.9c-5,0-9-4-9-9c0-5,4-9,9-9h54v-18.1h-18.2
			c-14.9,0-26.9-12.1-26.9-26.9s12.1-26.9,26.9-26.9H428V63.3h-26.9c-24.7,0-45,20.2-45,45c0,10.1,3.6,19.5,9.2,26.9H365
			c-14.9,0-26.9,12.1-26.9,26.9C338.2,177.1,350.2,189.2,365.1,189.2z"/>
		<path d="M284.2,261.1h18.1V279h-18.1V261.1z"/>
		<path d="M176.4,261.1h18.1V279h-18.1V261.1z"/>
		<path d="M212.3,261.1h18.1V279h-18.1V261.1z"/>
		<path d="M248.3,261.1h18.1V279h-18.1V261.1z"/>
		<path d="M284.2,297.1h18.1v18.1h-18.1V297.1z"/>
		<path d="M248.3,297.1h18.1v18.1h-18.1V297.1z"/>
		<path d="M248.3,333h18.1v18.1h-18.1V333z"/>
		<path d="M284.2,333h18.1v18.1h-18.1V333z"/>
	</g>
</g>
<g>
	<circle fill="#FFFFFF" cx="694.6" cy="167.3" r="86"/>
	<g>
		<path d="M694.6,262.2c52.3,0,94.9-42.6,94.9-94.9S747,72.4,694.6,72.4c-52.3,0-94.9,42.6-94.9,94.9S642.3,262.2,694.6,262.2z
			 M653.6,141.7l32.9-36.5c2.1-2.3,5-3.6,8.1-3.6c3.1,0,6.1,1.3,8.1,3.6l32.9,36.5c6.3,7,1.3,18.3-8.1,18.3h-18.3v58.4
			c0,8.1-6.5,14.6-14.6,14.6c-8.1,0-14.6-6.5-14.6-14.6V160h-18.3C652.3,160,647.3,148.7,653.6,141.7z"/>
	</g>
</g>
</svg>
