<svg id="Capa_1" enable-background="new 0 0 512.002 512.002" height="512" viewBox="0 0 512.002 512.002" width="512" xmlns="http://www.w3.org/2000/svg"><g><path d="m336.037 35.896h-160.072l-74.899 74.899v290.414l74.899 74.899h129.619c.173 0 .347-.001.52-.002 23.904-.138 43.118-19.795 43.118-43.707v-13.686c0-2.385 1.933-4.319 4.319-4.319h13.685c23.915 0 43.575-19.218 43.709-43.126.001-.171.002-.341.002-.512v-259.961z" fill="#f1f1f4"/><path d="m371.466 71.326h-230.93l-4.04 4.04v265.844c0 .843.683 1.526 1.526 1.526h235.958c.843 0 1.526-.683 1.526-1.526v-265.844z" fill="#dd636e"/><path d="m370.936 71.326v271.409h3.045c.843 0 1.526-.683 1.526-1.526v-265.843l-4.04-4.04z" fill="#da4a54"/><path d="m370.936 70.795v279.961c0 .171-.001.341-.002.512-.134 23.908-19.793 43.126-43.709 43.126-7.721 0-13.685 0-13.685 0-2.385 0-4.319 1.934-4.319 4.319v13.686c0 23.913-19.214 43.569-43.118 43.707-.173.001-.347.002-.52.002h-109.618l20 20h129.619c.173 0 .347-.001.52-.002 23.904-.138 43.118-19.795 43.118-43.707v-13.686c0-2.385 1.933-4.319 4.319-4.319h13.685c23.915 0 43.575-19.218 43.709-43.126.001-.171.002-.341.002-.512v-259.961z" fill="#dfdde2"/><path d="m410.936 370.756c0 .152 0 .304-.001.456-.103 23.934-19.775 43.182-43.709 43.182-7.721 0-13.685 0-13.685 0-2.385 0-4.319 1.934-4.319 4.319v13.686c0 23.934-19.248 43.605-43.182 43.708-.152.001-.304.001-.456.001 27.941 0 54.737-11.099 74.495-30.857 19.757-19.757 30.857-46.554 30.857-74.495z" fill="#f1f1f4"/><path d="m309.433 247.132h-19.26l-28.361 95.603h81.581v-61.644c-.001-18.755-15.205-33.959-33.96-33.959z" fill="#665e66"/><path d="m221.83 247.132h-19.26c-18.755 0-33.959 15.204-33.959 33.959v61.644h81.58z" fill="#665e66"/><path d="m253.351 264.462-31.521-17.33 28.361 95.603h11.621l28.361-95.603-31.521 17.33c-1.651.907-3.651.907-5.301 0z" fill="#da4a54"/><path d="m280.006 236.965v-10.184c-8.415 5.756-17.709 9.053-24.005 9.053s-15.589-3.296-24.005-9.053v10.184c0 5.615-4.552 10.167-10.167 10.167l31.521 17.33c1.65.907 3.65.907 5.3 0l31.521-17.33c-5.614 0-10.165-4.552-10.165-10.167z" fill="#ffddce"/><path d="m253.351 264.462-17.426 30.184-14.095-47.514z" fill="#dd636e"/><path d="m258.651 264.462 17.426 30.184 14.095-47.514z" fill="#dd636e"/><path d="m229.918 150.368 18.371-18.371v12.66c0 4.689 3.801 8.49 8.49 8.49h46.253c1.831-27.378-20.057-50.607-47.624-50.27-27.257.334-47.976 23.17-46.431 50.27h14.233c2.515 0 4.928-1 6.708-2.779z" fill="#ffe07d"/><path d="m256.779 153.147c-4.689 0-8.49-3.801-8.49-8.49v-12.66l-18.371 18.371c-1.779 1.779-4.192 2.779-6.709 2.779h-14.233c.016.277.033.555.054.833l3.167 43.01c1.69 22.944 29.975 38.844 43.804 38.844 13.828 0 42.114-15.9 43.803-38.844l3.205-43.519c.008-.108.016-.216.023-.325h-46.253z" fill="#ffece4"/><g fill="#e7a561"><path d="m185.628 26.234-94.224 94.224c-.431.431-1.131.431-1.562 0l-16.846-16.846c-.431-.431-.431-1.131 0-1.562l94.224-94.224c.431-.431 1.131-.431 1.562 0l16.846 16.846c.431.431.431 1.13 0 1.562z"/><path d="m185.628 485.77-94.224-94.224c-.431-.431-1.131-.431-1.562 0l-16.846 16.846c-.431.431-.431 1.131 0 1.562l94.224 94.224c.431.431 1.131.431 1.562 0l16.846-16.846c.431-.431.431-1.131 0-1.562z"/><path d="m326.374 26.234 94.224 94.224c.431.431 1.131.431 1.562 0l16.846-16.846c.431-.431.431-1.131 0-1.562l-94.223-94.224c-.431-.431-1.131-.431-1.562 0l-16.846 16.846c-.432.431-.432 1.13-.001 1.562z"/></g><path d="m139.148 35.896h-33.763c-2.385 0-4.319 1.933-4.319 4.319v33.763z" fill="#f1f1f4"/><path d="m410.936 73.978v-33.763c0-2.385-1.934-4.319-4.319-4.319h-33.763z" fill="#dfdde2"/><path d="m101.066 438.026v33.763c0 2.385 1.934 4.319 4.319 4.319h33.763z" fill="#dfdde2"/><path d="m256.017 203.418c7.678 0 13.924-6.246 13.924-13.923v-11.275c0-4.142-3.357-7.5-7.5-7.5s-7.5 3.358-7.5 7.5v10.275c-3.633.522-6.424 3.646-6.424 7.423 0 4.142 3.357 7.5 7.5 7.5z"/><path d="m257.874 400.665c4.143 0 7.5-3.358 7.5-7.5s-3.357-7.5-7.5-7.5h-4.753l1.846-6.889c1.072-4.001-1.302-8.114-5.303-9.186-4.002-1.069-8.114 1.302-9.186 5.303l-2.886 10.772h-12.002l1.846-6.89c1.072-4.001-1.302-8.113-5.303-9.186-4.002-1.069-8.114 1.302-9.186 5.304l-2.886 10.771h-12.38c-4.143 0-7.5 3.358-7.5 7.5s3.357 7.5 7.5 7.5h8.36l-3.358 12.531h-10.151c-4.143 0-7.5 3.358-7.5 7.5s3.357 7.5 7.5 7.5h6.132l-1.296 4.838c-1.072 4.001 1.302 8.113 5.303 9.186 4.008 1.071 8.115-1.306 9.186-5.304l2.336-8.72h12.002l-1.296 4.838c-1.072 4.001 1.302 8.114 5.303 9.186 4.008 1.071 8.115-1.306 9.186-5.303l2.337-8.721h11c4.143 0 7.5-3.358 7.5-7.5s-3.357-7.5-7.5-7.5h-6.981l3.358-12.531h8.772zm-27.659 12.53h-12.002l3.357-12.531h12.002z"/><path d="m288.938 427.475c-4.143 0-7.5 3.358-7.5 7.5s3.357 7.5 7.5 7.5h30.532c4.143 0 7.5-3.358 7.5-7.5s-3.357-7.5-7.5-7.5h-7.767v-50.641c0-4.142-3.357-7.5-7.5-7.5s-7.5 3.358-7.5 7.5c0 3.08-2.506 5.585-5.585 5.585-4.143 0-7.5 3.358-7.5 7.5s3.357 7.5 7.5 7.5c1.935 0 3.809-.269 5.585-.77v30.825h-7.765z"/><path d="m410.936 275.369c4.143 0 7.5-3.358 7.5-7.5v-140.102c2.985 1.084 6.55.479 9.027-2.006l16.854-16.852c3.346-3.354 3.345-8.809-.006-12.163l-25.875-25.875v-30.656c0-6.517-5.302-11.818-11.818-11.818h-30.656l-25.875-25.875c-1.605-1.605-3.755-2.521-6.09-2.521-2.301.001-4.462.898-6.079 2.521l-16.854 16.852c-2.43 2.436-3.094 5.98-1.993 9.022h-126.141c1.101-3.042.436-6.588-2-9.028l-16.84-16.84c-3.36-3.368-8.808-3.373-12.176-.006l-25.874 25.874h-30.656c-6.517 0-11.818 5.302-11.818 11.818v30.656l-25.878 25.879c-3.348 3.352-3.349 8.807.004 12.166l16.84 16.84c2.47 2.476 6.028 3.103 9.034 2.012v256.471c-2.985-1.084-6.55-.479-9.027 2.006l-16.854 16.852c-3.346 3.354-3.345 8.809.006 12.163l25.875 25.875v30.656c0 6.517 5.302 11.818 11.818 11.818h30.656l25.874 25.874c1.605 1.605 3.755 2.521 6.09 2.521 2.301-.001 4.462-.898 6.079-2.521l16.854-16.852c2.43-2.436 3.094-5.98 1.993-9.022 130.329 0 111.311.011 113.255-.002 61.88-.321 111.928-50.335 112.249-112.249.001-.118.002 2.45.002-68.488 0-4.142-3.357-7.5-7.5-7.5s-7.5 3.358-7.5 7.5c0 .525.001 67.859-.001 68.354-.109 19.673-16.342 35.671-36.208 35.671h-13.685c-6.517 0-11.818 5.302-11.818 11.818v13.686c0 19.865-15.998 36.099-35.671 36.208-.499.002-126.481.001-126.979.001l-70.506-70.506v-284.199l20.43-20.43v30.687c0 4.142 3.357 7.5 7.5 7.5s7.5-3.358 7.5-7.5v-45.333h224.01v256.41h-17.113v-13.163c0-4.142-3.357-7.5-7.5-7.5s-7.5 3.358-7.5 7.5v13.163h-15.859v-28.146c0-4.142-3.357-7.5-7.5-7.5s-7.5 3.358-7.5 7.5v28.146h-33.174l23.911-80.604h13.662c14.59 0 26.46 11.87 26.46 26.459v5.981c0 4.142 3.357 7.5 7.5 7.5s7.5-3.358 7.5-7.5v-5.981c0-22.861-18.599-41.459-41.46-41.459-26.423 0-17.31-.005-19.281-.001-1.46-.011-2.645-1.203-2.645-2.666v-6.4c10.297-7.937 18.764-19.252 19.778-33.025.047-.635 3.193-43.346 3.229-43.853 2.156-31.614-23.132-58.657-55.196-58.311-31.174.382-55.606 26.369-53.826 58.228.047.798.277 3.865 3.227 43.935 1.014 13.772 9.481 25.087 19.778 33.024v6.399c0 1.431-1.151 2.667-2.682 2.667h-19.244c-22.86 0-41.459 18.599-41.459 41.459v54.144h-17.114v-176.072c0-4.142-3.357-7.5-7.5-7.5s-7.5 3.358-7.5 7.5v182.05c0 4.977 4.049 9.026 9.025 9.026h235.955c4.977 0 9.025-4.049 9.025-9.026v-247.737l20.43 20.43v153.967c.001 4.141 3.358 7.499 7.501 7.499zm-137.087.417-4.873-8.441c4.849-2.666 2.588-1.423 8.815-4.846-1.016 3.421-2.936 9.896-3.942 13.287zm-39.637-13.288c6.226 3.423 3.789 2.083 8.815 4.846l-4.873 8.441c-1.007-3.39-2.928-9.866-3.942-13.287zm21.577 72.737-11.757-39.632 11.969-20.732 11.969 20.732-11.757 39.632zm-.289-224.858c21.066-.267 37.822 15.719 39.914 35.27h-38.635c-.546 0-.99-.444-.99-.99v-12.661c0-4.16-3.382-7.5-7.498-7.5-1.952 0-3.87.762-5.306 2.197l-18.371 18.372c-.375.375-.874.582-1.405.582h-6.558c2.154-19.307 18.022-35.015 38.849-35.27zm-38.459 50.27h6.168c4.538 0 8.804-1.767 12.013-4.976l6.282-6.282c2.021 6.514 8.105 11.258 15.275 11.258h38.181l-2.635 35.792c-1.357 18.426-26.19 31.895-36.324 31.895s-34.967-13.469-36.324-31.895zm38.96 82.687c4.614 0 10.513-1.403 16.658-4.039.357 2.701 1.327 5.212 2.765 7.387l-19.423 10.679-19.423-10.679c1.438-2.175 2.408-4.686 2.765-7.387 6.145 2.636 12.044 4.039 16.658 4.039zm-49.032 91.901v-28.146c0-4.142-3.357-7.5-7.5-7.5s-7.5 3.358-7.5 7.5v28.146h-15.859v-54.144c0-14.59 11.869-26.459 26.459-26.459h13.662l23.911 80.604h-33.173zm214.41-224.603c-5.874-5.874-60.685-60.686-67.235-67.236h15.604c4.749 4.749 45.023 45.023 59.434 59.434zm-17.943-67.236v12.475l-12.475-12.475zm-59.434-25.745 10.746 10.746h-15.604l-2.944-2.944zm-176.002 0 7.803 7.802c-134.601 134.603.543-.544-67.236 67.235v-15.604c12.271-12.271 39.688-39.689 59.433-59.433zm-59.434 25.745h12.475l-12.475 12.475zm-25.746 59.435 10.746-10.746v15.604l-2.943 2.943zm7.803 298.541c8.64 8.64-10.027-10.026 67.235 67.236h-15.604l-59.434-59.435zm17.943 67.235v-12.475l12.475 12.475zm59.434 25.746-10.746-10.746h15.604l2.944 2.944zm188.723-61.955v-10.504h10.503c9.349 0 18.13-2.512 25.69-6.893-9.346 18.399-24.593 33.698-43.086 43.086 4.38-7.56 6.893-16.34 6.893-25.689zm-177.651-389.002h153.858l20.429 20.429h-194.716z"/></g></svg>