<svg id="Capa_1" enable-background="new 0 0 512 512" height="512" viewBox="0 0 512 512" width="512" xmlns="http://www.w3.org/2000/svg"><g><g><path d="m415.606 191.35h60.61v280.825h-60.61z" fill="#c8ea73"/></g><g><path d="m415.606 434.517v37.658h60.61v-121.084c-14.817 35.337-36.313 64.275-60.61 83.426z" fill="#b7e445"/></g><g><path d="m310.549 320.65h60.61v151.524h-60.61z" fill="#dd5790"/></g><g><path d="m310.549 434.517v37.658h60.61v-121.084c-14.817 35.337-36.313 64.275-60.61 83.426z" fill="#da387d"/></g><g><path d="m205.492 260.041h60.61v212.134h-60.61z" fill="#c8ea73"/></g><g><path d="m205.492 434.517v37.658h60.61v-121.084c-14.817 35.337-36.313 64.275-60.61 83.426z" fill="#b7e445"/></g><g><path d="m100.435 391.362h60.61v80.813h-60.61z" fill="#dd5790"/></g><g><path d="m100.435 466.114v6.061h60.61v-80.813h-3.836c-14.578 31.402-34.497 57.194-56.774 74.752z" fill="#da387d"/></g><g><path d="m504.5 504.5h-480.837c-8.927 0-16.163-7.236-16.163-16.163v-480.837h32.325v464.675h464.675z" fill="#4073c8"/></g><g><path d="m462.06 61.403c-.357-8.92-7.881-15.86-16.796-15.504l-50.468 2.02c-8.92.357-15.861 7.877-15.504 16.796.357 8.92 7.875 15.855 16.796 15.504l12.712-.509-71.327 80.928-93.601-54c-5.666-3.269-12.746-2.801-17.931 1.19l-105.057 80.813c-7.075 5.442-8.398 15.589-2.956 22.666 3.183 4.138 7.976 6.309 12.822 6.309 3.439 0 6.905-1.094 9.843-3.353l96.488-74.222 95.694 55.209c6.662 3.841 15.114 2.459 20.201-3.314l78.395-88.948.407 10.176c.348 8.7 7.51 15.517 16.138 15.516.219 0 .438-.004.658-.013 8.92-.357 15.861-7.877 15.504-16.796z" fill="#e49542"/></g><g><path d="m504.5 464.67h-20.78v-191.17c0-4.143-3.357-7.5-7.5-7.5s-7.5 3.357-7.5 7.5v191.17h-45.61v-265.82h45.609v39.65c0 4.143 3.357 7.5 7.5 7.5s7.5-3.357 7.5-7.5v-47.15c0-4.143-3.357-7.5-7.5-7.5h-60.609c-4.143 0-7.5 3.357-7.5 7.5v273.32h-29.452v-144.02c0-4.143-3.357-7.5-7.5-7.5h-60.609c-4.143 0-7.5 3.357-7.5 7.5v144.02h-29.447v-204.629c0-4.143-3.357-7.5-7.5-7.5h-60.609c-4.143 0-7.5 3.357-7.5 7.5v204.629h-29.447v-73.309c0-4.143-3.357-7.5-7.5-7.5h-60.61c-4.143 0-7.5 3.357-7.5 7.5v73.309h-45.606v-41.564h16.739c4.143 0 7.5-3.357 7.5-7.5s-3.357-7.5-7.5-7.5h-16.739v-97.128h16.739c4.143 0 7.5-3.357 7.5-7.5s-3.357-7.5-7.5-7.5h-16.739v-97.128h16.739c4.143 0 7.5-3.357 7.5-7.5s-3.357-7.5-7.5-7.5h-16.739v-97.128h16.739c4.143 0 7.5-3.357 7.5-7.5s-3.357-7.5-7.5-7.5h-16.739v-64.222c0-4.143-3.357-7.5-7.5-7.5h-32.33c-4.143 0-7.5 3.357-7.5 7.5v126.5c0 4.143 3.357 7.5 7.5 7.5s7.5-3.357 7.5-7.5v-119h17.33v457.17c0 4.143 3.357 7.5 7.5 7.5h457.17v17.33h-473.34c-4.775 0-8.66-3.885-8.66-8.66v-319.34c0-4.143-3.357-7.5-7.5-7.5s-7.5 3.357-7.5 7.5v319.34c0 13.046 10.614 23.66 23.66 23.66h480.84c4.143 0 7.5-3.357 7.5-7.5v-32.33c0-4.143-3.357-7.5-7.5-7.5zm-186.451-136.52h45.609v136.52h-45.609zm-105.057-60.609h45.609v197.129h-45.609zm-105.057 131.32h45.61v65.809h-45.61z"/><path d="m130.75 225.11c5.268 0 10.255-1.698 14.412-4.906l92.515-71.161 91.357 52.704c9.72 5.604 22.157 3.56 29.573-4.858l67.118-76.151c3.333 9.065 12.01 15.442 22.194 15.442.33 0 .663-.003.963-.016 13.039-.527 23.218-11.561 22.691-24.594l-2.021-50.472c-.255-6.315-2.953-12.154-7.598-16.44-4.646-4.287-10.695-6.494-16.996-6.252l-50.463 2.02c-13.028.526-23.212 11.557-22.701 24.597.466 11.518 9.145 20.811 20.163 22.452l-56.058 63.602-28.313-16.333c-3.589-2.069-8.175-.84-10.245 2.75-2.069 3.588-.839 8.174 2.749 10.244l33.63 19.399c3.093 1.782 7.013 1.142 9.375-1.538l71.33-80.93c1.984-2.252 2.436-5.472 1.146-8.183-1.29-2.71-4.065-4.375-7.073-4.271l-12.704.51c-4.785.21-8.819-3.541-9.011-8.3-.188-4.776 3.545-8.819 8.315-9.012l50.463-2.02c2.318-.097 4.521.718 6.222 2.288 1.7 1.569 2.688 3.707 2.781 6.018l2.021 50.473c.193 4.771-3.534 8.811-8.339 9.005-.106.005-.217.003-.327.002-4.66 0-8.458-3.655-8.646-8.321l-.41-10.17c-.124-3.062-2.098-5.741-4.985-6.767-2.889-1.024-6.108-.189-8.136 2.109l-78.391 88.941c-2.715 3.082-7.27 3.829-10.824 1.781l-95.7-55.21c-2.63-1.519-5.915-1.301-8.32.552l-96.499 74.226c-1.518 1.17-3.336 1.789-5.259 1.789-2.719 0-5.226-1.23-6.873-3.37-2.914-3.792-2.206-9.245 1.575-12.155l105.06-80.81c2.793-2.145 6.564-2.398 9.61-.64l29.66 17.11c3.587 2.071 8.174.84 10.244-2.748s.84-8.175-2.748-10.244l-29.657-17.108c-8.32-4.808-18.626-4.125-26.253 1.74l-105.062 80.81c-10.334 7.952-12.273 22.838-4.319 33.189 4.515 5.865 11.354 9.227 18.764 9.227z"/></g></g></svg>